<!DOCTYPE svg PUBLIC "-//W3C//DTD SVG 1.1//EN" "http://www.w3.org/Graphics/SVG/1.1/DTD/svg11.dtd">
<!-- Uploaded to: SVG Repo, www.svgrepo.com, Transformed by: SVG Repo Mixer Tools -->
<svg height="256px" width="256px" version="1.1" id="Layer_1" xmlns="http://www.w3.org/2000/svg" xmlns:xlink="http://www.w3.org/1999/xlink" viewBox="0 0 502 502" xml:space="preserve" fill="#f20202" stroke="#f20202" stroke-width="0.00502">
<g id="SVGRepo_bgCarrier" stroke-width="0"/>
<g id="SVGRepo_tracerCarrier" stroke-linecap="round" stroke-linejoin="round"/>
<g id="SVGRepo_iconCarrier"> <g> <path style="fill:#85d6ff;" d="M416.846,396H85.154C43.648,396,10,362.352,10,320.846V181.154C10,139.648,43.648,106,85.154,106 h331.692C458.352,106,492,139.648,492,181.154v139.692C492,362.352,458.352,396,416.846,396z"/> <g> <path style="fill:#3700ff;" d="M71,213v76c20.987,0,38-17.013,38-38S91.987,213,71,213z"/> <path style="fill:#3700ff;" d="M395,251c0,20.987,17.013,38,38,38v-76C412.013,213,395,230.013,395,251z"/> </g> <g> <path d="M416.846,96H85.154C38.2,96,0,134.2,0,181.154v139.691C0,367.8,38.2,406,85.154,406h331.691 C463.8,406,502,367.8,502,320.846V181.154C502,134.2,463.8,96,416.846,96z M423,277.154c-10.516-4.034-18-14.236-18-26.154 s7.484-22.12,18-26.154V277.154z M251,241c-5.523,0-10,4.478-10,10v17.294c-5.968-3.465-10-9.91-10-17.294 c0-11.028,8.972-20,20-20c11.028,0,20,8.972,20,20c0,7.384-4.032,13.829-10,17.294V251C261,245.478,256.522,241,251,241z M261,289.734c17.233-4.452,30-20.13,30-38.734c0-22.056-17.944-40-40-40s-40,17.944-40,40c0,18.604,12.767,34.282,30,38.734V386 h-43V116h43v38c0,5.522,4.477,10,10,10c5.522,0,10-4.478,10-10v-38h44v270h-44V289.734z M81,224.846 C91.515,228.88,99,239.082,99,251s-7.485,22.12-18,26.154V224.846z M20,320.846V181.154c0-27.393,17.002-50.876,41-60.493V213v76 v92.339C37.002,371.721,20,348.239,20,320.846z M81,385.854v-87.909c21.683-4.614,38-23.906,38-46.945s-16.317-42.331-38-46.945 v-87.909c1.375-0.087,2.758-0.146,4.154-0.146H178v270H85.154C83.758,386,82.375,385.94,81,385.854z M325,386V116h91.846 c2.076,0,4.127,0.108,6.154,0.299v87.756c-21.683,4.614-38,23.906-38,46.945s16.317,42.331,38,46.945v87.756 c-2.027,0.191-4.078,0.299-6.154,0.299H325z M482,320.846c0,26.626-16.063,49.56-39,59.656V289v-76v-91.501 c22.938,10.096,39,33.03,39,59.656V320.846z"/> <path d="M251,174c-5.523,0-10,4.478-10,10v7c0,5.522,4.477,10,10,10c5.522,0,10-4.478,10-10v-7C261,178.478,256.522,174,251,174z"/> <path d="M170,164.5c0-22.056-17.944-40-40-40s-40,17.944-40,40s17.944,40,40,40S170,186.556,170,164.5z M110,164.5 c0-11.028,8.972-20,20-20s20,8.972,20,20s-8.972,20-20,20S110,175.528,110,164.5z"/> <path d="M130,297.5c-22.056,0-40,17.944-40,40s17.944,40,40,40s40-17.944,40-40S152.056,297.5,130,297.5z M130,357.5 c-11.028,0-20-8.972-20-20s8.972-20,20-20s20,8.972,20,20S141.028,357.5,130,357.5z"/> <path d="M374,204.5c22.056,0,40-17.944,40-40s-17.944-40-40-40s-40,17.944-40,40S351.944,204.5,374,204.5z M374,144.5 c11.028,0,20,8.972,20,20s-8.972,20-20,20s-20-8.972-20-20S362.972,144.5,374,144.5z"/> <path d="M374,297.5c-22.056,0-40,17.944-40,40s17.944,40,40,40s40-17.944,40-40S396.056,297.5,374,297.5z M374,357.5 c-11.028,0-20-8.972-20-20s8.972-20,20-20s20,8.972,20,20S385.028,357.5,374,357.5z"/> </g> </g> </g>
</svg>