<!DOCTYPE svg PUBLIC "-//W3C//DTD SVG 1.1//EN" "http://www.w3.org/Graphics/SVG/1.1/DTD/svg11.dtd">
<!-- Uploaded to: SVG Repo, www.svgrepo.com, Transformed by: SVG Repo Mixer Tools -->
<svg height="800px" width="800px" version="1.1" id="_x32_" xmlns="http://www.w3.org/2000/svg" xmlns:xlink="http://www.w3.org/1999/xlink" viewBox="0 0 512 512" xml:space="preserve" fill="#ffffff">
<g id="SVGRepo_bgCarrier" stroke-width="0"/>
<g id="SVGRepo_tracerCarrier" stroke-linecap="round" stroke-linejoin="round"/>
<g id="SVGRepo_iconCarrier"> <style type="text/css"> .st0{fill:#000000;} </style> <g> <path class="st0" d="M260.567,216.439c15.443,0,27.973-5.8,27.973-12.999c0-5.946-8.612-10.889-20.304-12.45V76.291l79.235-34.768 L252.898,0v77.043v5.978V190.99c-11.701,1.553-20.296,6.504-20.296,12.45C232.602,210.639,245.099,216.439,260.567,216.439z"/> <path class="st0" d="M426.107,190.634c-13.274-18.152-34.323-33.32-60.395-44.961c-21.226-9.44-45.899-16.413-72.626-20.223v21.801 c33.838,5.193,63.671,15.863,85.545,29.502c13.113,8.146,23.346,17.302,30.068,26.557c6.747,9.295,9.982,18.46,9.991,27.432 c0,1.01-0.041,2.03-0.129,3.066c-0.275,3.543-1.78,8.202-4.668,13.695c-4.303,8.243-11.568,18.12-20.182,29.154 c-8.551,10.977-18.42,23.16-28.006,36.653c-17.311,20.668-29.089,44.953-37.138,65.702c-4.045,10.443-7.135,19.996-9.424,27.73 c-2.288,7.701-3.818,13.695-4.619,16.567c-5.897,21.009-17.254,37.414-33.57,48.949c-16.333,11.495-37.956,18.193-64.812,18.201 c-8.599,0-17.724-0.688-27.342-2.144c-29.332-4.401-53.835-14.238-70.345-27.213c-8.275-6.488-14.561-13.695-18.751-21.364 c-4.19-7.684-6.374-15.815-6.383-24.705c0-2.434,0.162-4.918,0.51-7.458c0.955-7.053,3.721-13.987,7.758-21.089 c6.035-10.654,14.884-21.356,22.925-32.746c4.013-5.719,7.83-11.649,10.872-18.056c2.936-6.18,5.129-12.87,5.84-20.078 c1.19-4.562,1.812-9.06,1.812-13.388c0-8.988-2.322-17.126-5.396-24.487c-4.651-11.066-10.872-20.79-15.621-30.894 c-4.78-10.12-8.194-20.328-8.218-32.705c0-1.812,0.08-3.673,0.243-5.59c0.712-8.397,4.174-16.309,10.621-24.002 c9.626-11.495,26.185-21.946,47.613-29.243c16.228-5.549,35.189-9.311,55.769-10.815v-21.526 c-32.633,2.201-62.029,9.61-85.278,21.421c-13.962,7.126-25.773,15.854-34.574,26.29c-8.784,10.395-14.52,22.707-15.62,36.087 c-0.21,2.507-0.308,4.967-0.308,7.377c-0.007,22.108,8.494,39.104,15.888,52.92c3.729,6.933,7.208,13.186,9.602,18.962 c2.411,5.792,3.738,10.962,3.738,16.204c0,2.791-0.364,5.646-1.262,8.801l-0.283,1.003l-0.089,1.043 c-0.453,5.655-2.702,11.641-6.455,18.185c-5.573,9.821-14.391,20.426-22.65,32.228c-8.194,11.811-16.049,25.126-18.265,41.199 c-0.478,3.487-0.712,6.941-0.712,10.354c-0.008,12.514,3.203,24.422,9.028,35.044c8.744,15.96,23.094,29,41.029,38.958 c17.959,9.966,39.622,16.931,63.752,20.58c10.604,1.594,20.798,2.386,30.554,2.386c30.407,0.008,56.714-7.685,77.212-22.141 c20.523-14.415,34.914-35.529,41.911-60.775c0.922-3.317,2.338-8.866,4.522-16.211c6.464-21.955,19.851-59.142,42.712-86.079 l0.291-0.348l0.267-0.38c12.199-17.222,25.361-32.754,36.079-47.242c5.364-7.256,10.12-14.261,13.832-21.323 c3.681-7.054,6.399-14.237,7.063-21.914c0.129-1.626,0.194-3.235,0.194-4.845C440.231,216.398,434.925,202.712,426.107,190.634z"/> </g> </g>
</svg>