<!DOCTYPE svg PUBLIC "-//W3C//DTD SVG 1.1//EN" "http://www.w3.org/Graphics/SVG/1.1/DTD/svg11.dtd">
<!-- Uploaded to: SVG Repo, www.svgrepo.com, Transformed by: SVG Repo Mixer Tools -->
<svg height="256px" width="256px" version="1.1" id="Layer_1" xmlns="http://www.w3.org/2000/svg" xmlns:xlink="http://www.w3.org/1999/xlink" viewBox="0 0 504.855 504.855" xml:space="preserve" fill="#ffffff">
<g id="SVGRepo_bgCarrier" stroke-width="0"/>
<g id="SVGRepo_tracerCarrier" stroke-linecap="round" stroke-linejoin="round"/>
<g id="SVGRepo_iconCarrier"> <path style="fill:#3C8E51;" d="M251.255,445.627c-118.8,0-218.4-40.8-244-95.2c8,61.6,103.6,110.8,244,110.8 c140,0,235.2-48.8,244-110C469.255,405.227,369.655,445.627,251.255,445.627z"/> <path style="fill:#CC0000;" d="M292.455,321.227c-0.4-2-1.2-3.6-2.8-5.2c-5.2-5.6-18.4-9.2-18.4-9.2c-4.8-1.2-10-1.6-15.6-1.6 c-18.8,0-35.2,7.2-37.2,16c0,0.4,0,1.2,0,1.6c0,9.6,17.2,17.6,37.2,17.6c20.4,0,37.2-8,37.2-17.6 C292.455,322.427,292.455,322.027,292.455,321.227z"/> <path style="fill:#54B265;" d="M497.655,319.227c-4.4-63.6-113.2-114.4-246.4-114.4c-26.8,0-53.2,2-78.4,6h-0.4v92.8 c0,1.2-0.8,4-2,4h-2h-14c-1.2,0-2-2.8-2-4v-88.8c-86.8,18.4-144.8,58.8-147.6,104.8c0,0.8,0,1.2,0,2s0,1.2,0,2c0,4.8,0.8,9.6,2,14.4 c14.8,58.4,118.8,104,244.8,104c125.2,0,229.2-45.2,244.4-103.6c1.2-4.8,2-10,2-14.8 C497.655,322.027,497.655,320.827,497.655,319.227z"/> <path style="fill:#F4EFEF;" d="M162.455,43.227c-3.2,0-6,2.8-6,6v160.8h0.4h-0.4v2v2v89.6h12v-93.6v-50v-102.4v-8 C168.455,46.027,165.655,43.227,162.455,43.227z"/> <polygon style="fill:#BC3F2C;" points="172.455,60.427 172.455,156.827 282.455,108.427 "/> <path d="M252.455,447.627c-139.2,0-252.4-56-252.4-124.4c0-50,60-94.8,152.8-114.4c2-0.4,4.4,0.8,4.8,3.2s-0.8,4.4-3.2,4.8 c-88.8,18.8-146.4,60.4-146.4,106.4c0,64,109.6,116.4,244.4,116.4s244.4-52.4,244.4-116.4s-109.6-116.4-244.4-116.4 c-26.8,0-53.2,2-78.4,6c-2,0.4-4.4-1.2-4.4-3.2c-0.4-2,1.2-4.4,3.2-4.4c25.6-4,52.4-6.4,79.6-6.4c139.2,0,252.4,56,252.4,124.4 C504.855,392.027,391.655,447.627,252.455,447.627z"/> <path d="M252.455,346.827c-24.4,0-43.2-10.4-43.2-23.6s19.2-23.6,43.2-23.6c6,0,11.6,0.8,16.8,2c2,0.4,3.6,2.8,3.2,4.8 c-0.4,2-2.8,3.6-4.8,3.2c-4.8-1.2-10-1.6-15.2-1.6c-20.8,0-35.2,8.4-35.2,15.6s14.4,15.6,35.2,15.6s35.2-8.4,35.2-15.6 c0-2-0.8-3.6-2.8-5.6c-1.6-1.6-1.6-4,0-5.6s4-1.6,5.6,0c3.2,3.2,4.8,7.2,4.8,11.2C295.655,336.427,276.455,346.827,252.455,346.827z "/> <path d="M170.455,309.627h-15.6c-2.4,0-4-1.6-4-4v-256.4c0-6.4,5.2-12,12-12c6.4,0,12,5.2,12,12v256.4 C174.455,307.627,172.855,309.627,170.455,309.627z M158.855,301.627h7.6v-252.4c0-2-1.6-4-4-4c-2,0-4,1.6-4,4v252.4H158.855z"/> <path d="M170.455,163.627c-0.8,0-1.6-0.4-2-0.8c-1.2-0.8-2-2-2-3.2v-102.4c0-1.2,0.8-2.8,2-3.2c1.2-0.8,2.4-0.8,3.6-0.4l116.8,51.2 c1.6,0.8,2.4,2,2.4,3.6s-0.8,3.2-2.4,3.6l-116.8,51.2C171.655,163.627,170.855,163.627,170.455,163.627z M174.455,63.627v90 l102.8-45.2L174.455,63.627z"/> <path d="M249.655,467.627c-96.8,0-185.6-27.6-226-70c-16.4-17.2-24.4-36-23.6-55.6v-19.6c0-2.4,1.6-4,4-4s4,1.6,4,4v19.6 c-0.8,17.6,6.4,34.4,21.6,50c39.2,41.2,126,67.6,220.4,67.6c135.6,0,246-51.6,246-114.8l0.8-23.2c0-2,2-4,4-4l0,0c2.4,0,4,2,4,4 l-0.8,23.2C503.655,413.627,392.055,467.627,249.655,467.627z"/> </g>
</svg>