<!DOCTYPE svg PUBLIC "-//W3C//DTD SVG 1.1//EN" "http://www.w3.org/Graphics/SVG/1.1/DTD/svg11.dtd">
<!-- Uploaded to: SVG Repo, www.svgrepo.com, Transformed by: SVG Repo Mixer Tools -->
<svg version="1.1" id="Layer_1" xmlns="http://www.w3.org/2000/svg" xmlns:xlink="http://www.w3.org/1999/xlink" viewBox="0 0 512 512" xml:space="preserve" width="256px" height="256px" fill="#ffffff">
<g id="SVGRepo_bgCarrier" stroke-width="0"/>
<g id="SVGRepo_tracerCarrier" stroke-linecap="round" stroke-linejoin="round"/>
<g id="SVGRepo_iconCarrier"> <g> <polygon style="fill:#AFB6BB;" points="504.082,87.093 504.082,424.907 430.186,424.907 430.186,335.175 430.186,176.825 430.186,87.093 "/> <polygon style="fill:#AFB6BB;" points="81.814,335.175 81.814,424.907 7.918,424.907 7.918,87.093 81.814,87.093 81.814,176.825 "/> </g> <g> <rect x="129.32" y="87.093" style="fill:#9EC552;" width="42.227" height="89.732"/> <rect x="129.32" y="176.825" style="fill:#9EC552;" width="42.227" height="158.351"/> <rect x="129.32" y="335.175" style="fill:#9EC552;" width="42.227" height="89.732"/> <rect x="213.773" y="335.175" style="fill:#9EC552;" width="42.227" height="89.732"/> <rect x="213.773" y="176.825" style="fill:#9EC552;" width="42.227" height="158.351"/> <rect x="213.773" y="87.093" style="fill:#9EC552;" width="42.227" height="89.732"/> <rect x="298.227" y="87.093" style="fill:#9EC552;" width="42.227" height="89.732"/> <rect x="298.227" y="176.825" style="fill:#9EC552;" width="42.227" height="158.351"/> <rect x="298.227" y="335.175" style="fill:#9EC552;" width="42.227" height="89.732"/> <rect x="382.68" y="335.175" style="fill:#9EC552;" width="47.505" height="89.732"/> <rect x="382.68" y="176.825" style="fill:#9EC552;" width="47.505" height="158.351"/> <rect x="382.68" y="87.093" style="fill:#9EC552;" width="47.505" height="89.732"/> </g> <g> <rect x="340.454" y="87.093" style="fill:#43B05C;" width="42.227" height="89.732"/> <rect x="340.454" y="176.825" style="fill:#43B05C;" width="42.227" height="158.351"/> <rect x="340.454" y="335.175" style="fill:#43B05C;" width="42.227" height="89.732"/> <rect x="256" y="335.175" style="fill:#43B05C;" width="42.227" height="89.732"/> <rect x="256" y="176.825" style="fill:#43B05C;" width="42.227" height="158.351"/> <rect x="256" y="87.093" style="fill:#43B05C;" width="42.227" height="89.732"/> <rect x="171.546" y="87.093" style="fill:#43B05C;" width="42.227" height="89.732"/> <rect x="171.546" y="176.825" style="fill:#43B05C;" width="42.227" height="158.351"/> <rect x="171.546" y="335.175" style="fill:#43B05C;" width="42.227" height="89.732"/> <rect x="81.814" y="335.175" style="fill:#43B05C;" width="47.505" height="89.732"/> <rect x="81.814" y="176.825" style="fill:#43B05C;" width="47.505" height="158.351"/> <rect x="81.814" y="87.093" style="fill:#43B05C;" width="47.505" height="89.732"/> </g> <path d="M0,79.175v353.65h512V79.175H0z M422.268,327.258h-31.67V184.742h31.67V327.258z M374.763,327.258h-26.392V184.742h26.392 V327.258z M89.732,184.742h31.67v142.515h-31.67V184.742z M137.237,184.742h26.392v142.515h-26.392V184.742z M179.464,184.742 h26.392v142.515h-26.392V184.742z M221.691,184.742h26.392v142.515h-26.392V184.742z M263.918,184.742h26.392v142.515h-26.392 V184.742z M306.144,184.742h26.392v142.515h-26.392V184.742z M348.371,168.907V95.01h26.392v73.897H348.371z M332.536,168.907 h-26.392V95.01h26.392V168.907z M290.309,168.907h-26.392V95.01h26.392V168.907z M248.082,168.907h-26.392V95.01h26.392V168.907z M205.856,168.907h-26.392V95.01h26.392V168.907z M163.629,168.907h-26.392V95.01h26.392V168.907z M121.402,168.907h-31.67V95.01 h31.67V168.907z M89.732,343.093h31.67v73.897h-31.67V343.093z M137.237,343.093h26.392v73.897h-26.392V343.093z M179.464,343.093 h26.392v73.897h-26.392V343.093z M221.691,343.093h26.392v73.897h-26.392V343.093z M263.918,343.093h26.392v73.897h-26.392V343.093z M306.144,343.093h26.392v73.897h-26.392V343.093z M348.371,343.093h26.392v73.897h-26.392V343.093z M390.598,343.093h31.67v73.897 h-31.67V343.093z M422.268,168.907h-31.67V95.01h31.67V168.907z M15.835,95.01h58.062V416.99H15.835V95.01z M496.165,416.99h-58.062 V95.01h58.062V416.99z"/> <polygon points="482.969,295.588 482.969,279.753 469.773,279.753 469.773,232.247 482.969,232.247 482.969,216.412 453.938,216.412 453.938,295.588 "/> <polygon points="29.031,216.412 29.031,232.247 42.227,232.247 42.227,279.753 29.031,279.753 29.031,295.588 58.062,295.588 58.062,216.412 "/> </g>
</svg>