<!DOCTYPE svg PUBLIC "-//W3C//DTD SVG 1.1//EN" "http://www.w3.org/Graphics/SVG/1.1/DTD/svg11.dtd">
<!-- Uploaded to: SVG Repo, www.svgrepo.com, Transformed by: SVG Repo Mixer Tools -->
<svg version="1.1" id="Layer_1" xmlns="http://www.w3.org/2000/svg" xmlns:xlink="http://www.w3.org/1999/xlink" viewBox="0 0 512 512" xml:space="preserve" width="256px" height="256px" fill="#000000" transform="rotate(90)">
<g id="SVGRepo_bgCarrier" stroke-width="0"/>
<g id="SVGRepo_tracerCarrier" stroke-linecap="round" stroke-linejoin="round"/>
<g id="SVGRepo_iconCarrier"> <g> <polygon style="fill:#303030;" points="504.082,139.876 504.082,372.124 393.237,372.124 393.237,256 393.237,139.876 "/> <rect x="256" y="139.876" style="fill:#303030;" width="137.237" height="116.124"/> </g> <rect x="256" y="256" style="fill:#303030;" width="137.237" height="116.124"/> <rect x="118.763" y="256" style="fill:#303030;" width="137.237" height="116.124"/> <rect x="118.763" y="139.876" style="fill:#303030;" width="137.237" height="116.124"/> <polygon style="fill:#303030;" points="118.763,256 118.763,372.124 7.918,372.124 7.918,139.876 118.763,139.876 "/> <g> <polygon style="fill:#303030;" points="256,372.124 256,424.907 7.918,424.907 7.918,372.124 118.763,372.124 "/> <polygon style="fill:#303030;" points="504.082,87.093 504.082,139.876 393.237,139.876 256,139.876 256,87.093 "/> </g> <g> <polygon style="fill:#303030;" points="504.082,372.124 504.082,424.907 256,424.907 256,372.124 393.237,372.124 "/> <polygon style="fill:#303030;" points="256,87.093 256,139.876 118.763,139.876 7.918,139.876 7.918,87.093 "/> </g> <path d="M0,79.175v353.65h512V79.175H0z M496.165,131.959H263.918V95.01h232.247V131.959z M385.32,248.082H263.918V147.794H385.32 V248.082z M248.082,248.082H126.68V147.794h121.402V248.082z M110.845,364.206h-95.01V147.794h95.01V364.206z M126.68,263.918 h121.402v100.289H126.68V263.918z M263.918,263.918H385.32v100.289H263.918V263.918z M401.155,147.794h95.01v216.412h-95.01V147.794 z M248.082,95.01v36.948H15.835V95.01H248.082z M15.835,380.041h232.247v36.948H15.835V380.041z M263.918,416.99v-36.948h232.247 v36.948H263.918z"/> </g>
</svg>