<!DOCTYPE svg PUBLIC "-//W3C//DTD SVG 1.1//EN" "http://www.w3.org/Graphics/SVG/1.1/DTD/svg11.dtd">
<!-- Uploaded to: SVG Repo, www.svgrepo.com, Transformed by: SVG Repo Mixer Tools -->
<svg version="1.1" id="Layer_1" xmlns="http://www.w3.org/2000/svg" xmlns:xlink="http://www.w3.org/1999/xlink" viewBox="0 0 511.989 511.989" xml:space="preserve" width="256px" height="256px" fill="#ffffff">
<g id="SVGRepo_bgCarrier" stroke-width="0"/>
<g id="SVGRepo_tracerCarrier" stroke-linecap="round" stroke-linejoin="round"/>
<g id="SVGRepo_iconCarrier"> <path style="fill:#FFCE54;" d="M501.333,85.327H10.664C4.773,85.327,0,90.108,0,95.998v319.993c0,5.891,4.773,10.672,10.664,10.672 h490.668c5.875,0,10.656-4.781,10.656-10.672V95.998C511.989,90.108,507.208,85.327,501.333,85.327z"/> <g> <rect x="245.335" y="85.325" style="fill:#F6BB42;" width="21.327" height="341.34"/> <path style="fill:#F6BB42;" d="M42.664,373.32h-32C4.773,373.32,0,368.554,0,362.665v-213.34c0-5.891,4.773-10.656,10.664-10.656 h32c64.701,0,117.333,52.624,117.333,117.326C159.997,320.695,107.365,373.32,42.664,373.32z"/> </g> <path style="fill:#E6E9ED;" d="M32,287.993c-17.648,0-31.999-14.359-31.999-31.999c0-17.641,14.351-32,31.999-32s32,14.359,32,32 C63.999,273.635,49.648,287.993,32,287.993z M32,245.323c-5.883,0-10.664,4.797-10.664,10.672c0,5.875,4.781,10.672,10.664,10.672 s10.664-4.797,10.664-10.672C42.664,250.12,37.883,245.323,32,245.323z"/> <path style="fill:#434A54;" d="M10.664,298.665C4.773,298.665,0,293.884,0,287.993v-63.999c0-5.891,4.773-10.671,10.664-10.671 s10.672,4.781,10.672,10.671v63.999C21.336,293.885,16.555,298.665,10.664,298.665z"/> <path style="fill:#F6BB42;" d="M469.334,138.669h31.999c5.875,0,10.656,4.765,10.656,10.656v213.34 c0,5.89-4.781,10.655-10.656,10.655h-31.999c-64.717,0-117.342-52.624-117.342-117.325 C351.992,191.293,404.617,138.669,469.334,138.669z"/> <path style="fill:#E6E9ED;" d="M479.99,223.995c17.655,0,31.999,14.359,31.999,32c0,17.64-14.344,31.999-31.999,31.999 c-17.656,0-32-14.359-32-31.999C447.99,238.354,462.334,223.995,479.99,223.995z M479.99,266.667 c5.875,0,10.656-4.797,10.656-10.672c0-5.875-4.781-10.672-10.656-10.672s-10.656,4.797-10.656,10.672 C469.334,261.87,474.115,266.667,479.99,266.667z"/> <path style="fill:#434A54;" d="M501.333,213.324c5.875,0,10.656,4.781,10.656,10.671v63.999c0,5.891-4.781,10.672-10.656,10.672 c-5.906,0-10.687-4.781-10.687-10.672v-63.999C490.646,218.105,495.427,213.324,501.333,213.324z"/> <path style="fill:#FC6E51;" d="M255.995,181.325c-41.171,0-74.663,33.5-74.663,74.67s33.491,74.67,74.663,74.67 c41.171,0,74.654-33.499,74.654-74.67S297.166,181.325,255.995,181.325z"/> <path style="fill:#E9573F;" d="M326.649,280.135c-13.812-7.016-29.312-10.749-45.983-11.171c-0.078-8.484-0.797-17.188-2.141-26.094 c16.156-4.078,30.781-11.391,43.452-21.781c-3.358-6.343-7.624-12.14-12.608-17.25c-10.281,8.672-22.031,14.734-35.109,18.187 c-4.82-18.859-11.125-33.484-14.484-40.608c-1.25-0.062-2.515-0.094-3.78-0.094c-6.367,0-12.547,0.812-18.453,2.312 c0.195,1.078,0.555,2.141,1.094,3.156c0.094,0.172,8.367,15.812,14.414,38.468c-6.195,0.312-12.641,0.141-19.312-0.5 c-20.375-2.016-36.312-8.125-40.156-9.703c-3.89,5.921-6.968,12.421-9.062,19.343c3.398,1.453,21.89,9,46.421,11.516 c5.289,0.531,10.492,0.812,15.601,0.812c3.703,0,7.352-0.141,10.944-0.422c1.266,8.219,1.906,16.172,1.945,23.844 c-7.671,1.016-15.515,2.671-23.499,4.952c-25.187,7.234-42.936,18.234-43.678,18.703c-0.156,0.094-0.297,0.203-0.438,0.297 c3.703,6.219,8.281,11.843,13.562,16.733c6.148-3.484,27.046-14.499,52.381-18.812c-1.983,12.046-5.71,23.296-11.194,33.64 c-0.719,1.359-1.102,2.797-1.203,4.234c3.469,0.5,7.023,0.766,10.633,0.766c4.226,0,8.366-0.359,12.397-1.047 c5.586-12.125,9.289-25.328,11.055-39.343c12.484,0.203,25.328,2.688,37.484,8.828C321.025,293.337,324.321,286.947,326.649,280.135 z"/> </g>
</svg>