<!DOCTYPE svg PUBLIC "-//W3C//DTD SVG 1.1//EN" "http://www.w3.org/Graphics/SVG/1.1/DTD/svg11.dtd">
<!-- Uploaded to: SVG Repo, www.svgrepo.com, Transformed by: SVG Repo Mixer Tools -->
<svg version="1.1" id="Layer_1" xmlns="http://www.w3.org/2000/svg" xmlns:xlink="http://www.w3.org/1999/xlink" viewBox="0 0 512 512" xml:space="preserve" width="800px" height="800px" fill="#000000" transform="rotate(90)">
<g id="SVGRepo_bgCarrier" stroke-width="0"/>
<g id="SVGRepo_tracerCarrier" stroke-linecap="round" stroke-linejoin="round"/>
<g id="SVGRepo_iconCarrier"> <rect x="8.348" y="106.062" style="fill:#303030;" width="495.304" height="299.865"/> <rect x="255.388" y="106.429" style="fill:#6e6e6e;" width="248.264" height="299.865"/> <g> <rect x="427.921" y="218.09" style="fill:#292929;" width="75.731" height="75.097"/> <rect x="8.348" y="218.09" style="fill:#292929;" width="75.731" height="75.097"/> </g> <path style="fill:#303030C3A41;" d="M503.652,97.717H380.3c-4.61,0-8.348,3.738-8.348,8.348c0,4.61,3.738,8.348,8.348,8.348h115.004 v5.298c-71.313,4.307-128.051,63.402-128.426,135.571c-0.001,0.12-0.009,0.239-0.009,0.36c0,0.04,0.003,0.079,0.003,0.119 c0,0.08-0.003,0.159-0.003,0.238c0,72.496,56.887,131.967,128.436,136.29v5.297H264.348v-80.801 c29.953-4.082,53.114-29.776,53.114-60.786c0-31.008-23.16-56.703-53.114-60.784v-80.801h60.875c4.61,0,8.348-3.738,8.348-8.348 s-3.738-8.348-8.348-8.348H8.348c-4.61,0-8.348,3.738-8.348,8.348v21.731v91.01v75.102v90.295v21.731 c0,4.61,3.738,8.348,8.348,8.348h108.99c4.61,0,8.348-3.738,8.348-8.348s-3.738-8.348-8.348-8.348H16.696v-5.297 c71.313-4.307,128.051-63.402,128.426-135.571c0.001-0.12,0.009-0.239,0.009-0.359c0-0.04-0.003-0.079-0.003-0.119 c0-0.08,0.003-0.159,0.003-0.238c0-72.495-56.887-131.967-128.436-136.289v-5.298h230.957v80.801 c-29.954,4.082-53.114,29.776-53.114,60.784c0,31.009,23.16,56.704,53.114,60.786v80.801h-82.758c-4.61,0-8.348,3.738-8.348,8.348 s3.738,8.348,8.348,8.348h338.759c4.61,0,8.348-3.738,8.348-8.348v-21.731v-91.011v-75.101v-90.295v-21.731 C512,101.455,508.262,97.717,503.652,97.717z M99.232,227.155c16.063,0,29.137,13.038,29.201,29.087c0,0.15-0.004,0.299-0.006,0.449 c-0.179,15.949-13.204,28.87-29.195,28.87h-6.805v-58.406L99.232,227.155L99.232,227.155z M75.731,285.561H16.696v-58.406h59.036 V285.561z M16.696,375.569v-73.312h82.537c8.015,0,15.554-2.07,22.117-5.697C105.559,340.254,65.017,372.243,16.696,375.569z M121.68,216.346c-6.642-3.741-14.297-5.886-22.448-5.886H16.696v-74.029C65.352,139.78,106.125,172.188,121.68,216.346z M300.767,256c0,21.784-15.712,39.965-36.419,43.88V212.12C285.055,216.035,300.767,234.217,300.767,256z M211.233,256 c0-21.783,15.712-39.965,36.419-43.88v87.759C226.945,295.965,211.233,277.784,211.233,256z M412.767,284.844 c-16.063,0-29.136-13.038-29.2-29.086c0-0.15,0.004-0.298,0.006-0.449c0.179-15.949,13.203-28.871,29.194-28.871h6.806v58.406 H412.767z M436.268,226.439h59.036v58.406h-59.036V226.439z M495.304,136.431v73.312h-82.538c-8.015,0-15.553,2.07-22.117,5.695 C406.441,171.747,446.983,139.757,495.304,136.431z M390.319,295.654c6.642,3.741,14.297,5.886,22.448,5.886h82.538v74.029 C446.648,372.221,405.875,339.812,390.319,295.654z"/> </g>
</svg>